<svg xmlns="http://www.w3.org/2000/svg" viewBox="0 0 200 200">
  <g transform="matrix(0.450417,0,0,0.450417,-64.12249,-55.85942) translate(81.05585,-16.77018)">
    <path d="M 166.73227,243.44769 C 166.73227,243.44769 276.54667,270.28261 281.18672,249.01574 C 285.73209,228.18279 261.53436,225.94164 259.53317,201.68728 C 257.59982,178.25506 276.75605,154.89812 310.57366,155.28683 C 344.21398,155.67351 363.3155,176.70838 364.70752,200.1406 C 366.55754,231.28241 340.15947,231.23002 348.62204,249.01574 C 357.74746,268.19459 459.19856,243.83012 472.35657,259.84251 C 486.97271,277.62935 484.26602,326.73649 468.95387,351.09673 C 453.64172,375.45696 441.8096,340.88862 418.84138,346.45668 C 395.87316,352.02473 397.34251,368.9609 398.73452,391.92913 C 400.12654,414.89735 402.9879,427.11613 425.95612,430.59616 C 448.92434,434.07619 460.29245,389.76377 468.95387,410.4893 C 477.61529,431.21483 478.5433,514.89031 460.60179,536.69852 C 444.13057,556.71957 344.36432,560.34934 339.96061,539.48255 C 334.9339,515.66365 359.9128,524.17039 358.52079,503.29019 C 357.12878,482.40999 332.30455,473.3619 306.5523,469.88187 C 280.80005,466.40184 264.55989,468.48986 255.5118,489.37006 C 246.46371,510.25026 278.86669,519.22102 271.90663,539.48255 C 264.55834,560.87423 148.79077,539.48255 148.79077,539.48255 C 148.79077,539.48255 175.82473,428.00663 150.64679,413.58266 C 127.83324,400.5132 126.20922,431.1375 103.93701,420.6974 C 81.66479,410.2573 87.619516,386.2064 92.491562,362.54217 C 97.363608,338.87794 111.45381,324.80649 128.06523,326.04048 C 141.5987,327.04582 170.59898,367.10488 177.55905,351.09673 C 184.51912,335.08858 166.73227,243.44769 166.73227,243.44769 z"/>
  </g>
</svg>
